<?xml version="1.0" encoding="UTF-8" standalone="no"?>
<svg
   xmlns:dc="http://purl.org/dc/elements/1.1/"
   xmlns:cc="http://creativecommons.org/ns#"
   xmlns:rdf="http://www.w3.org/1999/02/22-rdf-syntax-ns#"
   xmlns:svg="http://www.w3.org/2000/svg"
   xmlns="http://www.w3.org/2000/svg"
   xmlns:sodipodi="http://sodipodi.sourceforge.net/DTD/sodipodi-0.dtd"
   xmlns:inkscape="http://www.inkscape.org/namespaces/inkscape"
   width="81.928"
   height="70.953"
   viewBox="0 0 81.928 70.953"
   version="1.1"
   id="svg6"
   sodipodi:docname="kanku.svg"
   inkscape:version="0.92.2 5c3e80d, 2017-08-06">
  <metadata
     id="metadata12">
    <rdf:RDF>
      <cc:Work
         rdf:about="">
        <dc:format>image/svg+xml</dc:format>
        <dc:type
           rdf:resource="http://purl.org/dc/dcmitype/StillImage" />
      </cc:Work>
    </rdf:RDF>
  </metadata>
  <defs
     id="defs10" />
  <sodipodi:namedview
     pagecolor="#ffffff"
     bordercolor="#666666"
     borderopacity="1"
     objecttolerance="10"
     gridtolerance="10"
     guidetolerance="10"
     inkscape:pageopacity="0"
     inkscape:pageshadow="2"
     inkscape:window-width="1920"
     inkscape:window-height="1015"
     id="namedview8"
     showgrid="true"
     inkscape:zoom="4"
     inkscape:cx="-57.161612"
     inkscape:cy="45.002558"
     inkscape:window-x="2560"
     inkscape:window-y="0"
     inkscape:window-maximized="1"
     inkscape:current-layer="svg6">
    <inkscape:grid
       type="xygrid"
       id="grid874" />
  </sodipodi:namedview>
  <path
     d="M 61.445,0.033 H 20.48 L -0.001,35.509 20.443,70.921"
     id="path2"
     inkscape:connector-curvature="0"
     style="fill:#878787"
     sodipodi:nodetypes="cccc" />
  <path
     d="M 61.445,0.033 20.443,70.921 61.388094,70.92325 81.874,35.415 Z"
     id="path4"
     inkscape:connector-curvature="0"
     style="fill:#3cb6aa"
     sodipodi:nodetypes="ccccc" />
  <path
     style="fill:#ffffff;stroke-width:0.1090091"
     d="m 36.42855,62.567524 c -0.120831,-0.0298 -0.788151,-0.176496 -1.482932,-0.326004 -5.340842,-1.149278 -9.892054,-3.618882 -13.754776,-7.463689 -2.683006,-2.670565 -4.303992,-5.071466 -5.856851,-8.674787 -1.610536,-3.73715 -2.148048,-6.463984 -2.15292,-10.921875 -0.0025,-2.339326 0.09971,-3.495137 0.461231,-5.21322 1.11511,-5.299326 3.58626,-9.947654 7.29691,-13.725793 4.015185,-4.088208 8.790543,-6.6527623 14.63595,-7.8600808 1.19401,-0.2466126 4.968701,-0.3885915 7.124383,-0.267972 3.413939,0.1910243 6.753021,1.122027 10.190696,2.8413708 2.930819,1.465839 4.998637,3.085828 8.181668,6.409757 2.541344,2.653837 5.012658,7.364011 6.044756,11.520938 0.517991,2.086283 0.679618,3.612807 0.681498,6.436583 0.0018,2.609024 -0.142481,4.145731 -0.57252,6.100447 -0.996265,4.528462 -3.429511,9.15952 -6.45729,12.289784 -1.883267,1.947017 -3.788801,3.633308 -5.014698,4.437729 -2.904251,1.905744 -6.436371,3.392509 -9.823363,4.134915 -1.210131,0.265252 -1.431787,0.278136 -5.272643,0.30648 -2.205173,0.01628 -4.108268,0.0052 -4.229099,-0.02458 z m 3.925603,-2.614521 c -0.03473,-0.431639 -0.873273,-2.555176 -1.477428,-3.741488 -2.56782,-5.04215 -7.108943,-9.337429 -12.773769,-12.082234 -2.911862,-1.410896 -5.141641,-2.078014 -7.951889,-2.379092 -1.224667,-0.131206 -1.6597,-0.08141 -1.6597,0.189999 0,0.333917 1.015844,2.687858 1.936876,4.488189 1.544097,3.018206 2.885235,4.838645 5.184225,7.036952 3.620437,3.461894 7.530432,5.385262 13.130322,6.458954 2.119668,0.406412 2.19288,0.416251 2.981162,0.40062 l 0.65908,-0.01307 z m 2.896351,0.142371 c 3.415847,-0.569871 5.62615,-1.231274 8.117202,-2.428964 4.235977,-2.036647 7.528176,-5.043092 10.141931,-9.261633 0.957943,-1.546101 2.776134,-5.362899 3.023946,-6.347953 l 0.07484,-0.297492 h -1.08617 c -3.775433,0 -9.216342,2.107748 -13.389802,5.187059 -2.007156,1.480943 -5.161227,4.746898 -6.530729,6.762395 -1.178457,1.734336 -2.944072,5.536541 -2.944072,6.339981 0,0.302924 0.02179,0.317153 0.485581,0.317153 0.26707,0 1.215342,-0.121744 2.107273,-0.270546 z M 41.319611,43.91927 c 1.941673,-0.233205 3.632732,-0.997057 4.948907,-2.235419 1.421576,-1.337529 2.355454,-2.937248 2.633877,-4.511783 0.194583,-1.100399 0.08036,-3.63123 -0.198317,-4.393928 -1.088895,-2.980195 -3.299982,-4.999555 -6.289393,-5.744028 -1.276797,-0.317969 -3.161668,-0.250117 -4.448282,0.160131 -2.819194,0.898927 -5.045727,3.264195 -5.816681,6.179121 -0.224055,0.847133 -0.224724,3.109266 -0.0011,4.058854 0.280004,1.189542 1.164542,2.799018 2.053451,3.736392 1.501122,1.582966 3.130862,2.462084 5.082594,2.741664 0.930575,0.1333 0.997624,0.133596 2.035046,0.009 z M 19,28.932353 c 5.395565,-0.788993 11.015193,-3.773146 15.287408,-8.117973 2.063049,-2.098113 3.623252,-4.290433 4.841234,-6.802662 0.612684,-1.263735 1.309313,-3.052579 1.309313,-3.362133 0,-0.398828 -3.120043,-0.01158 -6.06841,0.753183 -2.47418,0.641769 -5.300491,1.827773 -7.173078,3.010039 -2.812485,1.775667 -5.770287,4.827094 -7.630769,7.872291 -1.232316,2.017036 -3.074331,5.967245 -3.074331,6.592921 0,0.202776 0.06509,0.224506 0.672446,0.224506 0.369843,0 1.196127,-0.07657 1.836187,-0.170172 z m 45.443769,-0.235494 c -0.195245,-1.055074 -2.01401,-4.877202 -3.220054,-6.766937 -3.822866,-5.98999 -9.052328,-9.44725 -16.665754,-11.017924 -1.62496,-0.335235 -4.010159,-0.535242 -4.010159,-0.336265 0,0.690204 1.974688,4.87772 3.022669,6.409864 2.147308,3.139355 5.41259,6.271055 8.515618,8.167245 3.734801,2.282252 8.498199,3.921107 11.459368,3.942613 l 0.973384,0.007 -0.07508,-0.405668 z"
     id="path872"
     inkscape:connector-curvature="0" />
</svg>
